<svg width="1660" height="2245" viewBox="0 0 1660 2245" fill="none" xmlns="http://www.w3.org/2000/svg">
<mask id="mask0_1_164" style="mask-type:alpha" maskUnits="userSpaceOnUse" x="0" y="0" width="1660" height="2245">
<rect width="1660" height="2245" fill="#D9D9D9"/>
</mask>
<g mask="url(#mask0_1_164)">
<mask id="mask1_1_164" style="mask-type:alpha" maskUnits="userSpaceOnUse" x="0" y="1193" width="1660" height="1052">
<path d="M356.315 1324.55C319.636 1356.58 316.043 1397.21 316.043 1443.16C287.403 1544.95 262.6 1589.58 192.817 1632.86L0 1764.23V1891.49V2245H1115.09H1660L1625 2148.49L1552.39 2107.04C1354.12 2071.8 1338.67 1929.43 1200.45 1764.86C1164.34 1721.87 1119.85 1677.37 1061.53 1632.86C1038.3 1612.18 1018.93 1597.12 1001.5 1583.92C961.091 1553.31 931.091 1532.69 887.574 1475.16C848.351 1423.3 810.491 1371.16 762.621 1326.76C748.213 1313.39 732.364 1298.37 713.246 1292C686.238 1283 653.444 1280.72 620.692 1281.09C601.122 1281.32 581.568 1282.49 563.272 1283.75C559.208 1284.03 555.206 1284.31 551.28 1284.59C546 1284.96 540.857 1285.33 535.884 1285.66C508.888 1287.46 483.19 1291.69 457.692 1296.96C434.313 1301.79 411.101 1307.48 387.209 1312.97C375.074 1315.75 366.374 1315.77 356.315 1324.55Z" fill="#149648"/>
<path d="M1025.49 1468.26C1022.84 1502.72 1003.5 1540.75 1003.5 1575.49L1001.5 1583.92C1018.93 1597.12 1038.3 1612.18 1061.53 1632.86C1119.85 1677.37 1164.34 1721.87 1200.45 1764.86C1200.36 1725.21 1198.58 1686.25 1188.32 1646.81C1178.35 1608.5 1168.38 1570.93 1141.69 1534.41C1127.34 1514.76 1111.69 1493.43 1088.68 1475.83C1070.3 1461.78 1043.56 1440.01 1028 1424.99L1025.49 1468.26Z" fill="#149648"/>
<path d="M563.272 1283.75C570.478 1231.69 585.536 1211.86 632.823 1193.87C526.696 1214.39 485.324 1235.38 457.692 1296.96C483.19 1291.69 508.888 1287.46 535.884 1285.66C540.857 1285.33 546 1284.96 551.28 1284.59C555.206 1284.31 559.208 1284.03 563.272 1283.75Z" fill="#149648"/>
<path d="M563.272 1283.75C581.568 1282.49 601.122 1281.32 620.692 1281.09L632.823 1193.87C585.536 1211.86 570.478 1231.69 563.272 1283.75Z" fill="#149648"/>
</mask>
<g mask="url(#mask1_1_164)">
<path d="M356.315 1324.55C319.636 1356.58 316.043 1397.21 316.043 1443.16C287.403 1544.95 262.6 1589.58 192.817 1632.86L0 1764.23V1891.49V2245H1115.09H1660L1625 2148.49L1552.39 2107.04C1354.12 2071.8 1338.67 1929.43 1200.45 1764.86C1164.34 1721.87 1119.85 1677.37 1061.53 1632.86C1038.3 1612.18 1018.93 1597.12 1001.5 1583.92C961.091 1553.31 931.091 1532.69 887.574 1475.16C848.351 1423.3 810.491 1371.16 762.621 1326.76C748.213 1313.39 732.364 1298.37 713.246 1292C686.238 1283 653.444 1280.72 620.692 1281.09C601.122 1281.32 581.568 1282.49 563.272 1283.75C559.208 1284.03 555.206 1284.31 551.28 1284.59C546 1284.96 540.857 1285.33 535.884 1285.66C508.888 1287.46 483.19 1291.69 457.692 1296.96C434.313 1301.79 411.101 1307.48 387.209 1312.97C375.074 1315.75 366.374 1315.77 356.315 1324.55Z" fill="#67310A"/>
<path d="M1025.49 1468.26C1022.84 1502.72 1003.5 1540.75 1003.5 1575.49L1001.5 1583.92C1018.93 1597.12 1038.3 1612.18 1061.53 1632.86C1119.85 1677.37 1164.34 1721.87 1200.45 1764.86C1200.36 1725.21 1198.58 1686.25 1188.32 1646.81C1178.35 1608.5 1168.38 1570.93 1141.69 1534.41C1127.34 1514.76 1111.69 1493.43 1088.68 1475.83C1070.3 1461.78 1043.56 1440.01 1028 1424.99L1025.49 1468.26Z" fill="#67310A"/>
<path d="M563.272 1283.75C570.478 1231.69 585.536 1211.86 632.823 1193.87C526.696 1214.39 485.324 1235.38 457.692 1296.96C483.19 1291.69 508.888 1287.46 535.884 1285.66C540.857 1285.33 546 1284.96 551.28 1284.59C555.206 1284.31 559.208 1284.03 563.272 1283.75Z" fill="#67310A"/>
<path d="M563.272 1283.75C581.568 1282.49 601.122 1281.32 620.692 1281.09L632.823 1193.87C585.536 1211.86 570.478 1231.69 563.272 1283.75Z" fill="#67310A"/>
<path fill-rule="evenodd" clip-rule="evenodd" d="M468.474 1515.05C469.903 1503.26 480.618 1494.86 492.405 1496.29C544.544 1502.61 590.186 1526.29 631.669 1549.66C730.185 1605.16 819.711 1673.22 903.061 1748.25C929.892 1772.41 955.688 1796.85 981.249 1821.08C1034.09 1871.15 1085.92 1920.27 1143.8 1963.87C1166.88 1981.26 1180.29 1989.09 1203.35 1992.93C1215.07 1994.89 1222.98 2005.96 1221.03 2017.68C1219.07 2029.39 1208 2037.3 1196.28 2035.35C1163.22 2029.84 1143.21 2017.26 1117.92 1998.21C1058.13 1953.17 1003.23 1901.17 949.388 1850.17C924.259 1826.36 899.357 1802.78 874.292 1780.21C792.682 1706.75 705.702 1640.73 610.562 1587.12C569.233 1563.84 530.126 1544.18 487.231 1538.98C475.443 1537.55 467.046 1526.84 468.474 1515.05ZM464.492 1597.32C473.843 1604.64 475.491 1618.15 468.172 1627.5C458.102 1640.37 442.005 1659.26 423.817 1680.59C408.346 1698.74 391.362 1718.67 375.286 1738.17C357.397 1759.88 340.205 1781.55 326.196 1801.07C311.915 1820.97 301.951 1837.25 297.462 1848.47C293.052 1859.5 280.54 1864.86 269.515 1860.45C258.49 1856.04 253.128 1843.53 257.538 1832.5C264.092 1816.12 276.715 1796.26 291.265 1776C306.087 1755.35 323.97 1732.83 342.102 1710.83C359.505 1689.71 376.794 1669.45 392.164 1651.44C409.532 1631.08 424.449 1613.6 434.31 1601C441.628 1591.65 455.141 1590 464.492 1597.32ZM504.204 1644.17H515.647C537.998 1644.17 560.444 1653.54 579.013 1662.94C588.595 1667.79 597.97 1673.09 606.492 1677.92L606.734 1678.05C615.356 1682.94 622.956 1687.24 629.863 1690.7C640.483 1696.01 644.788 1708.92 639.478 1719.54C634.167 1730.16 621.253 1734.47 610.632 1729.16C602.714 1725.2 594.272 1720.42 586.087 1715.78L585.296 1715.33C576.665 1710.44 568.142 1705.63 559.6 1701.31C546.946 1694.9 535.813 1690.43 526.267 1688.4L488.834 1744C482.203 1753.85 468.842 1756.45 458.992 1749.82C449.143 1743.19 446.534 1729.83 453.165 1719.98L504.204 1644.17ZM628.809 1839C619.694 1835.71 610.352 1835.49 596.861 1844.49C575.677 1858.61 520.46 1893.77 463.526 1925.48C435.078 1941.33 405.83 1956.52 379.992 1967.81C367.077 1973.46 354.7 1978.27 343.496 1981.7C332.588 1985.03 321.47 1987.49 311.5 1987.49C299.626 1987.49 290 1977.86 290 1965.99C290 1954.11 299.626 1944.49 311.5 1944.49C315.166 1944.49 321.518 1943.45 330.908 1940.58C340 1937.8 350.747 1933.67 362.771 1928.41C386.812 1917.9 414.711 1903.45 442.602 1887.91C498.345 1856.87 552.575 1822.33 573.009 1808.71C597.512 1792.37 621.072 1790.5 643.382 1798.54C663.136 1805.66 680.927 1820.37 696.183 1832.99L696.531 1833.27C706.772 1841.74 717.846 1849.28 729.894 1857.48C732.462 1859.23 735.074 1861.01 737.732 1862.83C752.371 1872.88 768.058 1884.1 781.847 1897.89C818.37 1934.41 854.044 1975.11 886.955 2013.83C897.981 2026.8 908.36 2039.5 918.503 2051.92C947.304 2087.17 974.193 2120.08 1008.55 2150.14C1013.83 2154.76 1019.26 2159.87 1024.5 2164.82L1024.84 2165.14C1030.08 2170.08 1035.2 2174.92 1040.43 2179.57C1051.28 2189.22 1061.22 2196.82 1070.47 2201.22C1078.01 2204.82 1085.68 2208.15 1093.76 2211.65C1094.75 2212.08 1095.75 2212.52 1096.76 2212.96C1105.8 2216.89 1115.29 2221.06 1124.7 2225.77C1135.32 2231.08 1139.63 2243.99 1134.32 2254.61C1129.01 2265.23 1116.09 2269.54 1105.47 2264.23C1097.19 2260.09 1088.64 2256.32 1079.62 2252.39C1078.63 2251.96 1077.63 2251.53 1076.63 2251.1C1068.64 2247.63 1060.25 2243.99 1051.98 2240.05C1037.07 2232.95 1023.44 2222.01 1011.85 2211.69C1006.15 2206.62 1000.62 2201.4 995.506 2196.58L994.996 2196.1C989.642 2191.05 984.807 2186.5 980.237 2182.5C942.929 2149.86 912.84 2113.02 883.411 2076.98C873.678 2065.06 864.018 2053.24 854.192 2041.68C821.481 2003.19 786.707 1963.56 751.441 1928.3C740.672 1917.53 727.838 1908.19 713.402 1898.29C711.06 1896.68 708.661 1895.05 706.222 1893.39C694.135 1885.17 681.067 1876.28 669.129 1866.41C652.368 1852.55 640.33 1843.15 628.809 1839ZM636.621 1956.58C640.376 1967.85 634.288 1980.02 623.023 1983.78C600.982 1991.13 580.199 2001.28 557.842 2012.19C556.559 2012.82 555.27 2013.45 553.976 2014.08C530.596 2025.49 505.499 2037.51 477.955 2045.68C476.364 2046.15 474.812 2046.61 473.299 2047.06C453.844 2052.8 440.538 2056.73 426.996 2065.76C417.116 2072.34 403.768 2069.67 397.181 2059.79C390.595 2049.91 393.264 2036.56 403.144 2029.98C422.376 2017.16 441.828 2011.46 460.278 2006.06C462.104 2005.52 463.921 2004.99 465.726 2004.46C489.43 1997.43 511.589 1986.92 535.122 1975.44C536.606 1974.71 538.097 1973.98 539.595 1973.25C561.375 1962.61 584.57 1951.27 609.426 1942.99C620.69 1939.23 632.866 1945.32 636.621 1956.58Z" fill="#67310A"/>
<path fill-rule="evenodd" clip-rule="evenodd" d="M468.474 1515.05C469.903 1503.26 480.618 1494.86 492.405 1496.29C544.544 1502.61 590.186 1526.29 631.669 1549.66C730.185 1605.16 819.711 1673.22 903.061 1748.25C929.892 1772.41 955.688 1796.85 981.249 1821.08C1034.09 1871.15 1085.92 1920.27 1143.8 1963.87C1166.88 1981.26 1180.29 1989.09 1203.35 1992.93C1215.07 1994.89 1222.98 2005.96 1221.03 2017.68C1219.07 2029.39 1208 2037.3 1196.28 2035.35C1163.22 2029.84 1143.21 2017.26 1117.92 1998.21C1058.13 1953.17 1003.23 1901.17 949.388 1850.17C924.259 1826.36 899.357 1802.78 874.292 1780.21C792.682 1706.75 705.702 1640.73 610.562 1587.12C569.233 1563.84 530.126 1544.18 487.231 1538.98C475.443 1537.55 467.046 1526.84 468.474 1515.05ZM464.492 1597.32C473.843 1604.64 475.491 1618.15 468.172 1627.5C458.102 1640.37 442.005 1659.26 423.817 1680.59C408.346 1698.74 391.362 1718.67 375.286 1738.17C357.397 1759.88 340.205 1781.55 326.196 1801.07C311.915 1820.97 301.951 1837.25 297.462 1848.47C293.052 1859.5 280.54 1864.86 269.515 1860.45C258.49 1856.04 253.128 1843.53 257.538 1832.5C264.092 1816.12 276.715 1796.26 291.265 1776C306.087 1755.35 323.97 1732.83 342.102 1710.83C359.505 1689.71 376.794 1669.45 392.164 1651.44C409.532 1631.08 424.449 1613.6 434.31 1601C441.628 1591.65 455.141 1590 464.492 1597.32ZM504.204 1644.17H515.647C537.998 1644.17 560.444 1653.54 579.013 1662.94C588.595 1667.79 597.97 1673.09 606.492 1677.92L606.734 1678.05C615.356 1682.94 622.956 1687.24 629.863 1690.7C640.483 1696.01 644.788 1708.92 639.478 1719.54C634.167 1730.16 621.253 1734.47 610.632 1729.16C602.714 1725.2 594.272 1720.42 586.087 1715.78L585.296 1715.33C576.665 1710.44 568.142 1705.63 559.6 1701.31C546.946 1694.9 535.813 1690.43 526.267 1688.4L488.834 1744C482.203 1753.85 468.842 1756.45 458.992 1749.82C449.143 1743.19 446.534 1729.83 453.165 1719.98L504.204 1644.17ZM628.809 1839C619.694 1835.71 610.352 1835.49 596.861 1844.49C575.677 1858.61 520.46 1893.77 463.526 1925.48C435.078 1941.33 405.83 1956.52 379.992 1967.81C367.077 1973.46 354.7 1978.27 343.496 1981.7C332.588 1985.03 321.47 1987.49 311.5 1987.49C299.626 1987.49 290 1977.86 290 1965.99C290 1954.11 299.626 1944.49 311.5 1944.49C315.166 1944.49 321.518 1943.45 330.908 1940.58C340 1937.8 350.747 1933.67 362.771 1928.41C386.812 1917.9 414.711 1903.45 442.602 1887.91C498.345 1856.87 552.575 1822.33 573.009 1808.71C597.512 1792.37 621.072 1790.5 643.382 1798.54C663.136 1805.66 680.927 1820.37 696.183 1832.99L696.531 1833.27C706.772 1841.74 717.846 1849.28 729.894 1857.48C732.462 1859.23 735.074 1861.01 737.732 1862.83C752.371 1872.88 768.058 1884.1 781.847 1897.89C818.37 1934.41 854.044 1975.11 886.955 2013.83C897.981 2026.8 908.36 2039.5 918.503 2051.92C947.304 2087.17 974.193 2120.08 1008.55 2150.14C1013.83 2154.76 1019.26 2159.87 1024.5 2164.82L1024.84 2165.14C1030.08 2170.08 1035.2 2174.92 1040.43 2179.57C1051.28 2189.22 1061.22 2196.82 1070.47 2201.22C1078.01 2204.82 1085.68 2208.15 1093.76 2211.65C1094.75 2212.08 1095.75 2212.52 1096.76 2212.96C1105.8 2216.89 1115.29 2221.06 1124.7 2225.77C1135.32 2231.08 1139.63 2243.99 1134.32 2254.61C1129.01 2265.23 1116.09 2269.54 1105.47 2264.23C1097.19 2260.09 1088.64 2256.32 1079.62 2252.39C1078.63 2251.96 1077.63 2251.53 1076.63 2251.1C1068.64 2247.63 1060.25 2243.99 1051.98 2240.05C1037.07 2232.95 1023.44 2222.01 1011.85 2211.69C1006.15 2206.62 1000.62 2201.4 995.506 2196.58L994.996 2196.1C989.642 2191.05 984.807 2186.5 980.237 2182.5C942.929 2149.86 912.84 2113.02 883.411 2076.98C873.678 2065.06 864.018 2053.24 854.192 2041.68C821.481 2003.19 786.707 1963.56 751.441 1928.3C740.672 1917.53 727.838 1908.19 713.402 1898.29C711.06 1896.68 708.661 1895.05 706.222 1893.39C694.135 1885.17 681.067 1876.28 669.129 1866.41C652.368 1852.55 640.33 1843.15 628.809 1839ZM636.621 1956.58C640.376 1967.85 634.288 1980.02 623.023 1983.78C600.982 1991.13 580.199 2001.28 557.842 2012.19C556.559 2012.82 555.27 2013.45 553.976 2014.08C530.596 2025.49 505.499 2037.51 477.955 2045.68C476.364 2046.15 474.812 2046.61 473.299 2047.06C453.844 2052.8 440.538 2056.73 426.996 2065.76C417.116 2072.34 403.768 2069.67 397.181 2059.79C390.595 2049.91 393.264 2036.56 403.144 2029.98C422.376 2017.16 441.828 2011.46 460.278 2006.06C462.104 2005.52 463.921 2004.99 465.726 2004.46C489.43 1997.43 511.589 1986.92 535.122 1975.44C536.606 1974.71 538.097 1973.98 539.595 1973.25C561.375 1962.61 584.57 1951.27 609.426 1942.99C620.69 1939.23 632.866 1945.32 636.621 1956.58Z" fill="white" fill-opacity="0.2"/>
</g>
<mask id="mask2_1_164" style="mask-type:alpha" maskUnits="userSpaceOnUse" x="1012" y="560" width="374" height="552">
<path d="M1014.16 626.175C1016.99 630.156 1022.2 631.64 1026.7 629.744L1070.01 611.488C1076.3 608.836 1082.95 607.133 1089.74 606.434L1119.25 603.397C1137.78 601.49 1156.48 604.353 1173.58 611.715C1182.49 615.547 1190.84 620.548 1198.43 626.586L1202.07 629.489L1210.52 636.063C1217.76 641.692 1227.2 643.647 1236.08 641.356L1241.55 639.943C1248.61 638.121 1254.12 632.6 1255.94 625.535C1257.26 620.384 1256.47 614.919 1253.76 610.346L1247.17 599.254C1241.85 590.292 1233.92 583.172 1224.43 578.848L1214.29 574.224C1208.12 571.41 1201.64 569.331 1194.98 568.028L1179.76 565.051C1165.95 562.349 1151.91 560.989 1137.84 560.989H1115.42C1110.48 560.989 1105.56 561.447 1100.71 562.356C1089.69 564.421 1079.24 568.782 1070.02 575.155L1043.5 593.489L1016.82 611.523C1011.98 614.796 1010.78 621.41 1014.16 626.175Z" fill="black"/>
<path d="M1074.53 699.293C1077.59 701.26 1081.48 701.38 1084.66 699.606L1112.8 683.882C1113.26 683.62 1113.75 683.395 1114.26 683.208L1115.47 682.758C1122.42 680.177 1129.57 686.033 1128.42 693.354C1128.14 695.079 1128.34 696.844 1128.99 698.465L1135 713.489L1138.03 719.552C1139.85 723.19 1143.57 725.489 1147.64 725.489C1150.13 725.489 1152.55 724.619 1154.48 723.029L1158.06 720.07C1160.93 717.698 1165.08 717.689 1167.96 720.047L1168.21 720.248C1168.4 720.408 1168.61 720.55 1168.83 720.673C1172.09 722.485 1171.59 727.322 1168.03 728.428L1163.2 729.926C1163.07 729.968 1162.93 729.998 1162.79 730.016C1160.17 730.358 1159.86 734.034 1162.39 734.804L1162.64 734.88C1162.88 734.952 1163.13 734.989 1163.37 734.989H1175.7C1178.7 734.989 1181.51 733.505 1183.21 731.025C1185.46 727.732 1185.31 723.357 1182.84 720.23L1181.15 718.097C1178.83 715.171 1177.91 711.382 1178.62 707.719L1179.49 703.192C1180.16 699.769 1180.03 696.239 1179.11 692.873L1173.64 672.698C1172.89 669.931 1171.5 667.381 1169.57 665.255L1156.94 651.291C1155.21 649.38 1152.14 649.646 1150.76 651.824C1149.24 654.231 1145.74 654.245 1144.2 651.85L1144.06 651.633C1143.39 650.594 1142.28 649.916 1141.06 649.79L1127.72 648.429C1121.7 647.815 1115.63 648.926 1110.21 651.632L1091.5 660.989L1074.05 672.157C1071.84 673.569 1072.84 676.989 1075.46 676.989C1075.82 676.989 1076.17 676.917 1076.49 676.778L1112.76 661.303C1113.25 661.096 1113.77 660.989 1114.3 660.989H1115.67C1120 660.989 1120.84 667.144 1116.66 668.304C1116.22 668.426 1115.81 668.628 1115.45 668.898L1108.17 674.276C1105.73 676.081 1103.13 677.672 1100.42 679.03L1093.68 682.401C1092.23 683.122 1090.69 683.618 1089.1 683.873L1076.71 685.855C1071.77 686.645 1069.15 692.127 1071.63 696.468C1072.2 697.467 1073.01 698.314 1073.97 698.936L1074.53 699.293Z" fill="black"/>
<path d="M1292.8 752.059C1294.02 750.089 1296.6 749.478 1298.56 750.695L1303.28 753.612C1304.66 754.468 1305.5 755.978 1305.5 757.604V758.513C1305.5 762.65 1300.29 764.477 1297.71 761.247C1297.57 761.075 1297.42 760.914 1297.26 760.765L1293.53 757.322C1292.06 755.967 1291.76 753.761 1292.8 752.059Z" fill="black"/>
<path d="M1280.73 728.14C1278.3 729.853 1279.83 733.681 1282.77 733.245C1283.83 733.088 1284.89 733.542 1285.5 734.419L1286.1 735.275C1287.23 736.89 1289.28 737.585 1291.16 736.991L1293.85 736.14C1296.17 735.409 1298.69 735.72 1300.76 736.993L1307.27 740.999C1309.41 742.318 1311.37 743.933 1312.91 745.919C1315.12 748.76 1317.5 752.275 1317.5 753.989C1317.5 756.636 1320.59 758.946 1322.54 757.158L1325.25 754.675C1325.74 754.228 1326.08 753.646 1326.22 753.001C1327.59 746.705 1329.88 735.264 1329.5 732.989C1329.21 731.279 1325.19 725.747 1321.52 721.019C1318.91 717.667 1315.55 714.985 1311.78 713.04L1302.96 708.499C1301.7 707.849 1300.24 707.696 1298.87 708.069L1288.01 711.031C1285.49 711.718 1285.48 715.29 1288 715.989C1292.52 717.151 1292.46 723.593 1287.92 724.674L1285.2 725.322C1284.74 725.432 1284.3 725.629 1283.91 725.903L1280.73 728.14Z" fill="black"/>
<path d="M1315.03 657.487C1307.62 666.502 1312.2 680.166 1323.55 682.898C1325.17 683.289 1326.72 683.936 1328.15 684.814L1335.92 689.612C1342.55 693.7 1351.23 690.006 1352.87 682.397C1353.28 680.491 1353.19 678.51 1352.61 676.649L1344.11 649.449C1343.71 648.152 1343.08 646.935 1342.26 645.852C1337.44 639.499 1327.82 639.69 1323.26 646.231L1317.5 654.489L1315.03 657.487Z" fill="black"/>
<path d="M1240.05 846.668C1247.42 848.664 1250.15 857.689 1245.13 863.445L1242.93 865.973C1238.72 870.803 1238.86 878.042 1243.27 882.698L1249.76 889.565C1251.89 891.813 1253.43 894.548 1254.26 897.53L1255.33 901.391C1256.92 907.1 1254.61 913.177 1249.63 916.389C1245.27 919.202 1239.68 919.292 1235.31 916.49C1227.85 911.707 1219.5 905.965 1219.5 904.489C1219.5 903.958 1218.91 902.428 1217.97 900.321C1212.03 887.022 1216.01 872.977 1223.5 860.489C1224.2 859.329 1226.16 855.645 1228.14 851.877C1230.41 847.572 1235.35 845.396 1240.05 846.668Z" fill="black"/>
<path d="M1279.24 907.106C1274.75 907.314 1271 903.734 1271 899.243C1271 895.581 1273.53 892.403 1277.09 891.576L1305.5 884.989C1313.13 883.4 1321.07 885.183 1327.28 889.878L1337.88 897.886C1339.21 898.895 1340 900.473 1340 902.148C1340 905.097 1337.61 907.489 1334.66 907.489H1330.16C1329.06 907.489 1327.97 907.304 1326.93 906.943L1306.86 899.962C1305.96 899.649 1305.01 899.489 1304.06 899.489C1302.08 899.489 1300.16 900.176 1298.64 901.434L1296.5 903.19C1293.9 905.332 1290.68 906.573 1287.32 906.73L1279.24 907.106Z" fill="black"/>
<path d="M1356.82 1063.16C1358.74 1057.02 1356.73 1050.32 1351.75 1046.24L1355 1057.49L1356.56 1063.99L1356.82 1063.16Z" fill="black"/>
<path d="M1246 1006.99L1281.5 989.989L1298.23 985.983C1310.51 983.043 1323.36 983.528 1335.38 987.383C1340.77 989.114 1346.36 990.173 1352.01 990.538L1359 990.989L1363 1020.99L1367.5 1022.49L1365.92 1002.74C1365.09 992.33 1357.22 983.857 1346.91 982.252L1346.5 982.189C1343.54 981.728 1340.71 980.626 1338.21 978.962C1334.81 976.697 1330.82 975.489 1326.74 975.489H1314.99C1308.37 975.489 1301.81 976.591 1295.56 978.75L1289.98 980.679C1281.7 983.538 1273.86 987.533 1266.68 992.547L1246 1006.99Z" fill="black"/>
<path d="M1337.94 999.379C1344.29 1001.66 1349.25 1006.73 1351.38 1013.12C1353.65 1019.93 1352.45 1027.42 1348.18 1033.19L1347.95 1033.49L1343.5 1039.49L1351.75 1046.24C1353.91 1039.42 1356.69 1032.81 1360.06 1026.5L1363 1020.99L1359 990.989L1325.97 995.666C1327.65 995.88 1329.3 996.278 1330.9 996.851L1337.94 999.379Z" fill="black"/>
<path d="M1335.38 987.383C1323.36 983.528 1310.51 983.043 1298.23 985.983L1281.5 989.989L1325.97 995.666L1359 990.989L1352.01 990.538C1346.36 990.173 1340.77 989.114 1335.38 987.383Z" fill="black"/>
<path d="M1281.5 989.989L1246 1006.99L1325.97 995.666L1281.5 989.989Z" fill="black"/>
<path d="M1243.29 1041.99C1247.4 1041.99 1251.16 1039.67 1253 1035.99L1244 1033.49L1235 1030.99L1230.54 1041.99H1243.29Z" fill="black"/>
<path d="M1292.5 1090.99H1343.5C1354.21 1090.99 1360.93 1079.43 1355.64 1070.12L1355 1068.99L1328.5 1059.99L1287 1049.49L1267.49 1046.91C1264.16 1046.47 1262.58 1050.89 1265.45 1052.65C1265.81 1052.87 1266.13 1053.17 1266.37 1053.52L1292.5 1090.99Z" fill="black"/>
<path d="M1235 1030.99L1246 1006.99L1266.68 992.547C1273.86 987.533 1281.7 983.538 1289.98 980.679L1295.56 978.75C1301.81 976.591 1308.37 975.489 1314.99 975.489H1326.74C1330.82 975.489 1334.81 976.697 1338.21 978.962C1340.71 980.626 1343.54 981.728 1346.5 982.189L1346.91 982.252C1357.22 983.857 1365.09 992.33 1365.92 1002.74L1367.5 1022.49L1365.02 1039.31C1363.68 1048.39 1363.54 1057.61 1364.6 1066.73C1365.2 1071.89 1366.18 1077.01 1367.54 1082.03L1368.19 1084.42C1370.72 1093.77 1374.23 1102.83 1378.66 1111.45V1111.45C1378.92 1111.95 1379.67 1111.71 1379.6 1111.16L1379.5 1110.35C1377.85 1097.55 1378.52 1084.55 1381.5 1071.99L1382.58 1064.44C1385.51 1043.88 1385.9 1023.05 1383.71 1002.4L1382.07 986.851C1381.69 983.282 1381.01 979.752 1380.05 976.295C1377.07 965.605 1371.38 955.866 1363.53 948.018L1355.13 939.623C1353.39 937.878 1351.38 936.413 1349.19 935.282L1342.75 931.967C1338.62 929.837 1333.63 930.239 1329.89 933.003C1326.53 935.486 1322.14 936.081 1318.24 934.582L1314.79 933.253C1312.61 932.417 1310.31 931.989 1307.98 931.989H1300.5C1283.49 929.742 1266.27 934.128 1252.4 944.237L1250 945.989L1227.5 962.489L1203.34 984.147C1200.12 987.034 1197.21 990.245 1194.65 993.729C1188.96 1001.47 1185.11 1010.4 1183.41 1019.85L1180.5 1035.99L1179.19 1044.5C1178.13 1051.37 1173.73 1057.27 1167.45 1060.24C1162.36 1062.64 1156.53 1062.89 1151.26 1060.94L1137.65 1055.92C1136.9 1055.64 1136.22 1055.17 1135.69 1054.56L1132.74 1051.19C1130.14 1048.22 1125.31 1050.75 1126.27 1054.57C1126.42 1055.17 1126.72 1055.73 1127.14 1056.19L1143.67 1074.28C1149.76 1080.95 1157.64 1085.72 1166.36 1088.03C1173.68 1089.98 1181.36 1090.12 1188.74 1088.47L1202.19 1085.46C1205.05 1084.81 1207.8 1083.76 1210.35 1082.32C1218.06 1077.99 1223.46 1070.48 1225.13 1061.8L1226.63 1054.02C1227.21 1051.01 1228.08 1048.06 1229.23 1045.21L1230.54 1041.99L1235 1030.99Z" fill="black"/>
</mask>
<g mask="url(#mask2_1_164)">
<path d="M1014.16 626.175C1016.99 630.156 1022.2 631.64 1026.7 629.744L1070.01 611.488C1076.3 608.836 1082.95 607.133 1089.74 606.434L1119.25 603.397C1137.78 601.49 1156.48 604.353 1173.58 611.715C1182.49 615.547 1190.84 620.548 1198.43 626.586L1202.07 629.489L1210.52 636.063C1217.76 641.692 1227.2 643.647 1236.08 641.356L1241.55 639.943C1248.61 638.121 1254.12 632.6 1255.94 625.535C1257.26 620.384 1256.47 614.919 1253.76 610.346L1247.17 599.254C1241.85 590.292 1233.92 583.172 1224.43 578.848L1214.29 574.224C1208.12 571.41 1201.64 569.331 1194.98 568.028L1179.76 565.051C1165.95 562.349 1151.91 560.989 1137.84 560.989H1115.42C1110.48 560.989 1105.56 561.447 1100.71 562.356C1089.69 564.421 1079.24 568.782 1070.02 575.155L1043.5 593.489L1016.82 611.523C1011.98 614.796 1010.78 621.41 1014.16 626.175Z" fill="black"/>
<path d="M1074.53 699.293C1077.59 701.26 1081.48 701.38 1084.66 699.606L1112.8 683.882C1113.26 683.62 1113.75 683.395 1114.26 683.208L1115.47 682.758C1122.42 680.177 1129.57 686.033 1128.42 693.354C1128.14 695.079 1128.34 696.844 1128.99 698.465L1135 713.489L1138.03 719.552C1139.85 723.19 1143.57 725.489 1147.64 725.489C1150.13 725.489 1152.55 724.619 1154.48 723.029L1158.06 720.07C1160.93 717.698 1165.08 717.689 1167.96 720.047L1168.21 720.248C1168.4 720.408 1168.61 720.55 1168.83 720.673C1172.09 722.485 1171.59 727.322 1168.03 728.428L1163.2 729.926C1163.07 729.968 1162.93 729.998 1162.79 730.016C1160.17 730.358 1159.86 734.034 1162.39 734.804L1162.64 734.88C1162.88 734.952 1163.13 734.989 1163.37 734.989H1175.7C1178.7 734.989 1181.51 733.505 1183.21 731.025C1185.46 727.732 1185.31 723.357 1182.84 720.23L1181.15 718.097C1178.83 715.171 1177.91 711.382 1178.62 707.719L1179.49 703.192C1180.16 699.769 1180.03 696.239 1179.11 692.873L1173.64 672.698C1172.89 669.931 1171.5 667.381 1169.57 665.255L1156.94 651.291C1155.21 649.38 1152.14 649.646 1150.76 651.824C1149.24 654.231 1145.74 654.245 1144.2 651.85L1144.06 651.633C1143.39 650.594 1142.28 649.916 1141.06 649.79L1127.72 648.429C1121.7 647.815 1115.63 648.926 1110.21 651.632L1091.5 660.989L1074.05 672.157C1071.84 673.569 1072.84 676.989 1075.46 676.989C1075.82 676.989 1076.17 676.917 1076.49 676.778L1112.76 661.303C1113.25 661.096 1113.77 660.989 1114.3 660.989H1115.67C1120 660.989 1120.84 667.144 1116.66 668.304C1116.22 668.426 1115.81 668.628 1115.45 668.898L1108.17 674.276C1105.73 676.081 1103.13 677.672 1100.42 679.03L1093.68 682.401C1092.23 683.122 1090.69 683.618 1089.1 683.873L1076.71 685.855C1071.77 686.645 1069.15 692.127 1071.63 696.468C1072.2 697.467 1073.01 698.314 1073.97 698.936L1074.53 699.293Z" fill="black"/>
<path d="M1292.8 752.059C1294.02 750.089 1296.6 749.478 1298.56 750.695L1303.28 753.612C1304.66 754.468 1305.5 755.978 1305.5 757.604V758.513C1305.5 762.65 1300.29 764.477 1297.71 761.247C1297.57 761.075 1297.42 760.914 1297.26 760.765L1293.53 757.322C1292.06 755.967 1291.76 753.761 1292.8 752.059Z" fill="black"/>
<path d="M1280.73 728.14C1278.3 729.853 1279.83 733.681 1282.77 733.245C1283.83 733.088 1284.89 733.542 1285.5 734.419L1286.1 735.275C1287.23 736.89 1289.28 737.585 1291.16 736.991L1293.85 736.14C1296.17 735.409 1298.69 735.72 1300.76 736.993L1307.27 740.999C1309.41 742.318 1311.37 743.933 1312.91 745.919C1315.12 748.76 1317.5 752.275 1317.5 753.989C1317.5 756.636 1320.59 758.946 1322.54 757.158L1325.25 754.675C1325.74 754.228 1326.08 753.646 1326.22 753.001C1327.59 746.705 1329.88 735.264 1329.5 732.989C1329.21 731.279 1325.19 725.747 1321.52 721.019C1318.91 717.667 1315.55 714.985 1311.78 713.04L1302.96 708.499C1301.7 707.849 1300.24 707.696 1298.87 708.069L1288.01 711.031C1285.49 711.718 1285.48 715.29 1288 715.989C1292.52 717.151 1292.46 723.593 1287.92 724.674L1285.2 725.322C1284.74 725.432 1284.3 725.629 1283.91 725.903L1280.73 728.14Z" fill="black"/>
<path d="M1315.03 657.487C1307.62 666.502 1312.2 680.166 1323.55 682.898C1325.17 683.289 1326.72 683.936 1328.15 684.814L1335.92 689.612C1342.55 693.7 1351.23 690.006 1352.87 682.397C1353.28 680.491 1353.19 678.51 1352.61 676.649L1344.11 649.449C1343.71 648.152 1343.08 646.935 1342.26 645.852C1337.44 639.499 1327.82 639.69 1323.26 646.231L1317.5 654.489L1315.03 657.487Z" fill="black"/>
<path d="M1240.05 846.668C1247.42 848.664 1250.15 857.689 1245.13 863.445L1242.93 865.973C1238.72 870.803 1238.86 878.042 1243.27 882.698L1249.76 889.565C1251.89 891.813 1253.43 894.548 1254.26 897.53L1255.33 901.391C1256.92 907.1 1254.61 913.177 1249.63 916.389C1245.27 919.202 1239.68 919.292 1235.31 916.49C1227.85 911.707 1219.5 905.965 1219.5 904.489C1219.5 903.958 1218.91 902.428 1217.97 900.321C1212.03 887.022 1216.01 872.977 1223.5 860.489C1224.2 859.329 1226.16 855.645 1228.14 851.877C1230.41 847.572 1235.35 845.396 1240.05 846.668Z" fill="black"/>
<path d="M1279.24 907.106C1274.75 907.314 1271 903.734 1271 899.243C1271 895.581 1273.53 892.403 1277.09 891.576L1305.5 884.989C1313.13 883.4 1321.07 885.183 1327.28 889.878L1337.88 897.886C1339.21 898.895 1340 900.473 1340 902.148C1340 905.097 1337.61 907.489 1334.66 907.489H1330.16C1329.06 907.489 1327.97 907.304 1326.93 906.943L1306.86 899.962C1305.96 899.649 1305.01 899.489 1304.06 899.489C1302.08 899.489 1300.16 900.176 1298.64 901.434L1296.5 903.19C1293.9 905.332 1290.68 906.573 1287.32 906.73L1279.24 907.106Z" fill="black"/>
<path d="M1356.82 1063.16C1358.74 1057.02 1356.73 1050.32 1351.75 1046.24L1355 1057.49L1356.56 1063.99L1356.82 1063.16Z" fill="black"/>
<path d="M1246 1006.99L1281.5 989.989L1298.23 985.983C1310.51 983.043 1323.36 983.528 1335.38 987.383C1340.77 989.114 1346.36 990.173 1352.01 990.538L1359 990.989L1363 1020.99L1367.5 1022.49L1365.92 1002.74C1365.09 992.33 1357.22 983.857 1346.91 982.252L1346.5 982.189C1343.54 981.728 1340.71 980.626 1338.21 978.962C1334.81 976.697 1330.82 975.489 1326.74 975.489H1314.99C1308.37 975.489 1301.81 976.591 1295.56 978.75L1289.98 980.679C1281.7 983.538 1273.86 987.533 1266.68 992.547L1246 1006.99Z" fill="black"/>
<path d="M1337.94 999.379C1344.29 1001.66 1349.25 1006.73 1351.38 1013.12C1353.65 1019.93 1352.45 1027.42 1348.18 1033.19L1347.95 1033.49L1343.5 1039.49L1351.75 1046.24C1353.91 1039.42 1356.69 1032.81 1360.06 1026.5L1363 1020.99L1359 990.989L1325.97 995.666C1327.65 995.88 1329.3 996.278 1330.9 996.851L1337.94 999.379Z" fill="black"/>
<path d="M1335.38 987.383C1323.36 983.528 1310.51 983.043 1298.23 985.983L1281.5 989.989L1325.97 995.666L1359 990.989L1352.01 990.538C1346.36 990.173 1340.77 989.114 1335.38 987.383Z" fill="black"/>
<path d="M1281.5 989.989L1246 1006.99L1325.97 995.666L1281.5 989.989Z" fill="black"/>
<path d="M1243.29 1041.99C1247.4 1041.99 1251.16 1039.67 1253 1035.99L1244 1033.49L1235 1030.99L1230.54 1041.99H1243.29Z" fill="black"/>
<path d="M1292.5 1090.99H1343.5C1354.21 1090.99 1360.93 1079.43 1355.64 1070.12L1355 1068.99L1328.5 1059.99L1287 1049.49L1267.49 1046.91C1264.16 1046.47 1262.58 1050.89 1265.45 1052.65C1265.81 1052.87 1266.13 1053.17 1266.37 1053.52L1292.5 1090.99Z" fill="black"/>
<path d="M1235 1030.99L1246 1006.99L1266.68 992.547C1273.86 987.533 1281.7 983.538 1289.98 980.679L1295.56 978.75C1301.81 976.591 1308.37 975.489 1314.99 975.489H1326.74C1330.82 975.489 1334.81 976.697 1338.21 978.962C1340.71 980.626 1343.54 981.728 1346.5 982.189L1346.91 982.252C1357.22 983.857 1365.09 992.33 1365.92 1002.74L1367.5 1022.49L1365.02 1039.31C1363.68 1048.39 1363.54 1057.61 1364.6 1066.73C1365.2 1071.89 1366.18 1077.01 1367.54 1082.03L1368.19 1084.42C1370.72 1093.77 1374.23 1102.83 1378.66 1111.45V1111.45C1378.92 1111.95 1379.67 1111.71 1379.6 1111.16L1379.5 1110.35C1377.85 1097.55 1378.52 1084.55 1381.5 1071.99L1382.58 1064.44C1385.51 1043.88 1385.9 1023.05 1383.71 1002.4L1382.07 986.851C1381.69 983.282 1381.01 979.752 1380.05 976.295C1377.07 965.605 1371.38 955.866 1363.53 948.018L1355.13 939.623C1353.39 937.878 1351.38 936.413 1349.19 935.282L1342.75 931.967C1338.62 929.837 1333.63 930.239 1329.89 933.003C1326.53 935.486 1322.14 936.081 1318.24 934.582L1314.79 933.253C1312.61 932.417 1310.31 931.989 1307.98 931.989H1300.5C1283.49 929.742 1266.27 934.128 1252.4 944.237L1250 945.989L1227.5 962.489L1203.34 984.147C1200.12 987.034 1197.21 990.245 1194.65 993.729C1188.96 1001.47 1185.11 1010.4 1183.41 1019.85L1180.5 1035.99L1179.19 1044.5C1178.13 1051.37 1173.73 1057.27 1167.45 1060.24C1162.36 1062.64 1156.53 1062.89 1151.26 1060.94L1137.65 1055.92C1136.9 1055.64 1136.22 1055.17 1135.69 1054.56L1132.74 1051.19C1130.14 1048.22 1125.31 1050.75 1126.27 1054.57C1126.42 1055.17 1126.72 1055.73 1127.14 1056.19L1143.67 1074.28C1149.76 1080.95 1157.64 1085.72 1166.36 1088.03C1173.68 1089.98 1181.36 1090.12 1188.74 1088.47L1202.19 1085.46C1205.05 1084.81 1207.8 1083.76 1210.35 1082.32C1218.06 1077.99 1223.46 1070.48 1225.13 1061.8L1226.63 1054.02C1227.21 1051.01 1228.08 1048.06 1229.23 1045.21L1230.54 1041.99L1235 1030.99Z" fill="black"/>
</g>
<mask id="mask3_1_164" style="mask-type:alpha" maskUnits="userSpaceOnUse" x="361" y="148" width="1032" height="1265">
<path d="M1017.21 352.163C1051.93 347.116 1087.34 350.205 1120.66 361.186L1192.4 384.831C1199.54 387.185 1205.56 392.109 1209.28 398.648L1216.06 410.57C1217.26 412.683 1219.5 413.989 1221.93 413.989C1225.97 413.989 1229.1 410.478 1228.65 406.47L1226 382.989V353.489L1222.08 315.533C1219.41 289.601 1210.15 264.782 1195.19 243.431C1176.55 216.828 1149.93 196.846 1119.17 186.378L1060.27 166.326C1006.59 148.052 949.225 143.351 893.287 152.643L831 162.989L729.352 183.216C666.02 195.819 607.41 225.696 560.005 269.542L502.519 322.713C465.285 357.152 435.961 399.26 416.708 446.183C389.876 511.58 361 582.49 361 584.489C361 586.994 368.74 674.287 373.831 731.314C374.938 743.72 374.3 756.194 371.936 768.422C364.958 804.515 373.218 841.887 394.757 871.678L446.602 943.384C456.287 956.779 461.5 972.886 461.5 989.415V1020.85C461.5 1036.14 448.809 1045.68 438 1056.49C434.5 1059.99 438 1090.49 438 1096.99C438 1102.19 483 1110.49 505.5 1113.99C521.386 1116.17 535.114 1126.28 541.537 1140.97C548.325 1156.5 554.989 1172.64 555.5 1176.99C556.08 1181.92 580.538 1187.15 602.708 1190.73C616.086 1192.89 628.959 1185.17 633.907 1172.55C634.963 1169.86 635.62 1167.02 635.856 1164.14L641.691 1092.96C644.219 1062.12 642.645 1031.07 637.009 1000.64V1000.64C636.022 995.305 633.606 990.34 630.019 986.271L590.714 941.687C576.063 925.067 565 905.601 558.22 884.508L556.374 878.763C552.482 866.654 550.5 854.013 550.5 841.294V830.827C550.5 817.476 553.807 804.333 560.125 792.572L567.383 779.06C577 761.157 595.678 749.989 616 749.989H624.947C643.22 749.989 661.398 752.621 678.921 757.804L698.625 763.631C714.968 768.465 729.907 777.162 742.181 788.986C756.756 803.028 767.015 820.943 771.749 840.621L790 916.489L801.111 983.554C803.012 995.024 802.254 1006.78 798.897 1017.91V1017.91C789.824 1047.99 789.59 1080.05 798.222 1110.27C802.058 1123.69 807.594 1136.57 814.695 1148.6L821.717 1160.49C843.273 1196.98 873.073 1227.92 908.732 1250.83L965 1286.99L1034 1344.42C1041.43 1350.6 1050.79 1353.99 1060.46 1353.99H1075.59C1080.51 1353.99 1085.08 1356.53 1087.67 1360.72C1089.19 1363.17 1091.42 1365.11 1094.06 1366.26L1163.58 1396.59C1182.39 1404.8 1202.45 1409.77 1222.92 1411.29L1230.74 1411.87C1253.93 1413.59 1277.19 1409.87 1298.68 1400.99C1327.81 1388.97 1352.38 1368.02 1368.85 1341.16L1371.35 1337.09C1377.1 1327.72 1381.78 1317.73 1385.29 1307.32C1390.4 1292.2 1393 1276.35 1393 1260.39V1235.49L1391.34 1221.58C1389.8 1208.7 1385.23 1196.38 1378 1185.61L1375.16 1181.38C1370.12 1173.89 1366.85 1165.34 1365.59 1156.39L1364.29 1147.17C1363.45 1141.19 1364.45 1135.1 1367.15 1129.7C1368.38 1127.24 1369.94 1124.96 1371.8 1122.93V1122.93C1373.4 1121.18 1373.67 1118.6 1372.48 1116.55L1370.46 1113.07C1368.51 1109.73 1365.8 1106.9 1362.55 1104.82L1360.66 1103.61C1357.99 1101.9 1354.87 1100.99 1351.69 1100.99C1349.23 1100.99 1346.8 1101.54 1344.57 1102.59L1333.82 1107.68C1331.28 1108.88 1328.89 1110.37 1326.68 1112.11C1322.61 1115.33 1319.25 1119.36 1316.82 1123.95L1313.64 1129.98C1311.91 1133.27 1311 1136.93 1311 1140.65V1143.3C1311 1149.06 1313.8 1154.47 1318.51 1157.79L1333.2 1168.19C1336.45 1170.48 1336.35 1175.34 1333 1177.49L1329.91 1179.27C1328.85 1179.88 1327.76 1180.41 1326.66 1180.88C1313.04 1186.66 1287.83 1195.41 1273.42 1192.07V1192.07L1238.5 1183.99L1203.34 1171.63C1190.5 1167.12 1180.46 1156.95 1176.12 1144.06L1173.58 1136.5C1169.05 1123.05 1156.44 1113.99 1142.25 1113.99C1132.29 1113.99 1122.85 1118.48 1116.58 1126.22L1094.75 1153.13C1091.75 1156.84 1087.23 1158.99 1082.46 1158.99C1071.66 1158.99 1064.03 1148.41 1067.44 1138.16L1070 1130.49L1096 1038.08C1097.33 1033.37 1098 1028.51 1098 1023.62C1098 998.236 1080.12 976.364 1055.24 971.32L1015.9 963.347C997.017 959.519 979.595 950.444 965.636 937.164L913.988 888.029C901.015 875.687 889.009 862.368 878.074 848.189L866.82 833.596C854.99 818.256 845.196 801.448 837.683 783.592L833.579 773.84C818.551 738.123 814.771 698.674 822.744 660.753C828.188 634.861 838.966 610.386 854.391 588.889L894.5 532.989L895.999 531.037C907.542 516.004 906.53 494.83 893.607 480.967C890.233 477.348 886.199 474.408 881.721 472.306L848.729 456.814C836.932 451.274 825.644 444.721 814.926 437.304C798.216 425.74 778.736 412.46 775.5 410.989C773.456 410.06 776.369 404.633 781.061 397.968C792.247 382.08 808.627 370.803 826.289 362.702C852.137 350.847 881.004 347.224 908.981 352.325L925.542 355.344C946.044 359.082 967.018 359.46 987.641 356.462L1017.21 352.163Z" fill="black"/>
</mask>
<g mask="url(#mask3_1_164)">
<path d="M1017.21 352.163C1051.93 347.116 1087.34 350.205 1120.66 361.186L1192.4 384.831C1199.54 387.185 1205.56 392.109 1209.28 398.648L1216.06 410.57C1217.26 412.683 1219.5 413.989 1221.93 413.989C1225.97 413.989 1229.1 410.478 1228.65 406.47L1226 382.989V353.489L1222.08 315.533C1219.41 289.601 1210.15 264.782 1195.19 243.431C1176.55 216.828 1149.93 196.846 1119.17 186.378L1060.27 166.326C1006.59 148.052 949.225 143.351 893.287 152.643L831 162.989L729.352 183.216C666.02 195.819 607.41 225.696 560.005 269.542L502.519 322.713C465.285 357.152 435.961 399.26 416.708 446.183C389.876 511.58 361 582.49 361 584.489C361 586.994 368.74 674.287 373.831 731.314C374.938 743.72 374.3 756.194 371.936 768.422C364.958 804.515 373.218 841.887 394.757 871.678L446.602 943.384C456.287 956.779 461.5 972.886 461.5 989.415V1020.85C461.5 1036.14 448.809 1045.68 438 1056.49C434.5 1059.99 438 1090.49 438 1096.99C438 1102.19 483 1110.49 505.5 1113.99C521.386 1116.17 535.114 1126.28 541.537 1140.97C548.325 1156.5 554.989 1172.64 555.5 1176.99C556.08 1181.92 580.538 1187.15 602.708 1190.73C616.086 1192.89 628.959 1185.17 633.907 1172.55C634.963 1169.86 635.62 1167.02 635.856 1164.14L641.691 1092.96C644.219 1062.12 642.645 1031.07 637.009 1000.64V1000.64C636.022 995.305 633.606 990.34 630.019 986.271L590.714 941.687C576.063 925.067 565 905.601 558.22 884.508L556.374 878.763C552.482 866.654 550.5 854.013 550.5 841.294V830.827C550.5 817.476 553.807 804.333 560.125 792.572L567.383 779.06C577 761.157 595.678 749.989 616 749.989H624.947C643.22 749.989 661.398 752.621 678.921 757.804L698.625 763.631C714.968 768.465 729.907 777.162 742.181 788.986C756.756 803.028 767.015 820.943 771.749 840.621L790 916.489L801.111 983.554C803.012 995.024 802.254 1006.78 798.897 1017.91V1017.91C789.824 1047.99 789.59 1080.05 798.222 1110.27C802.058 1123.69 807.594 1136.57 814.695 1148.6L821.717 1160.49C843.273 1196.98 873.073 1227.92 908.732 1250.83L965 1286.99L1034 1344.42C1041.43 1350.6 1050.79 1353.99 1060.46 1353.99H1075.59C1080.51 1353.99 1085.08 1356.53 1087.67 1360.72C1089.19 1363.17 1091.42 1365.11 1094.06 1366.26L1163.58 1396.59C1182.39 1404.8 1202.45 1409.77 1222.92 1411.29L1230.74 1411.87C1253.93 1413.59 1277.19 1409.87 1298.68 1400.99C1327.81 1388.97 1352.38 1368.02 1368.85 1341.16L1371.35 1337.09C1377.1 1327.72 1381.78 1317.73 1385.29 1307.32C1390.4 1292.2 1393 1276.35 1393 1260.39V1235.49L1391.34 1221.58C1389.8 1208.7 1385.23 1196.38 1378 1185.61L1375.16 1181.38C1370.12 1173.89 1366.85 1165.34 1365.59 1156.39L1364.29 1147.17C1363.45 1141.19 1364.45 1135.1 1367.15 1129.7C1368.38 1127.24 1369.94 1124.96 1371.8 1122.93V1122.93C1373.4 1121.18 1373.67 1118.6 1372.48 1116.55L1370.46 1113.07C1368.51 1109.73 1365.8 1106.9 1362.55 1104.82L1360.66 1103.61C1357.99 1101.9 1354.87 1100.99 1351.69 1100.99C1349.23 1100.99 1346.8 1101.54 1344.57 1102.59L1333.82 1107.68C1331.28 1108.88 1328.89 1110.37 1326.68 1112.11C1322.61 1115.33 1319.25 1119.36 1316.82 1123.95L1313.64 1129.98C1311.91 1133.27 1311 1136.93 1311 1140.65V1143.3C1311 1149.06 1313.8 1154.47 1318.51 1157.79L1333.2 1168.19C1336.45 1170.48 1336.35 1175.34 1333 1177.49L1329.91 1179.27C1328.85 1179.88 1327.76 1180.41 1326.66 1180.88C1313.04 1186.66 1287.83 1195.41 1273.42 1192.07V1192.07L1238.5 1183.99L1203.34 1171.63C1190.5 1167.12 1180.46 1156.95 1176.12 1144.06L1173.58 1136.5C1169.05 1123.05 1156.44 1113.99 1142.25 1113.99C1132.29 1113.99 1122.85 1118.48 1116.58 1126.22L1094.75 1153.13C1091.75 1156.84 1087.23 1158.99 1082.46 1158.99C1071.66 1158.99 1064.03 1148.41 1067.44 1138.16L1070 1130.49L1096 1038.08C1097.33 1033.37 1098 1028.51 1098 1023.62C1098 998.236 1080.12 976.364 1055.24 971.32L1015.9 963.347C997.017 959.519 979.595 950.444 965.636 937.164L913.988 888.029C901.015 875.687 889.009 862.368 878.074 848.189L866.82 833.596C854.99 818.256 845.196 801.448 837.683 783.592L833.579 773.84C818.551 738.123 814.771 698.674 822.744 660.753C828.188 634.861 838.966 610.386 854.391 588.889L894.5 532.989L895.999 531.037C907.542 516.004 906.53 494.83 893.607 480.967C890.233 477.348 886.199 474.408 881.721 472.306L848.729 456.814C836.932 451.274 825.644 444.721 814.926 437.304C798.216 425.74 778.736 412.46 775.5 410.989C773.456 410.06 776.369 404.633 781.061 397.968C792.247 382.08 808.627 370.803 826.289 362.702C852.137 350.847 881.004 347.224 908.981 352.325L925.542 355.344C946.044 359.082 967.018 359.46 987.641 356.462L1017.21 352.163Z" fill="black"/>
</g>
<mask id="mask4_1_164" style="mask-type:alpha" maskUnits="userSpaceOnUse" x="579" y="767" width="164" height="190">
<path d="M661.023 790.377C659.372 787.832 657.065 785.779 654.345 784.436L627.129 770.987C619.965 767.448 611.744 766.688 604.053 768.854C590.123 772.778 580.5 785.485 580.5 799.958V810.489C579.334 829.822 578.2 870.089 583 876.489C586.723 881.452 599.906 910.389 610.147 933.548C615.091 944.729 625.255 952.75 637.3 954.845L645.526 956.276C649.982 957.051 654.563 955.979 658.213 953.307L663.901 949.142C671.436 943.625 670.398 932.074 662 927.989L631.387 909.899C615.636 900.592 603.675 886.025 597.611 868.764C595.216 861.947 593.783 854.829 593.355 847.617L591.814 821.68C591.293 812.912 594.266 804.293 600.083 797.711L606.676 790.251C608.79 787.859 611.829 786.489 615.021 786.489C622.177 786.489 627.476 793.14 625.878 800.115L624.504 806.109C623.856 808.935 624.24 811.9 625.586 814.469C627.685 818.477 631.836 820.989 636.36 820.989H639.273C642.366 820.989 645.4 820.144 648.048 818.545L655.591 813.991C663.746 809.067 666.207 798.37 661.023 790.377Z" fill="#855A1B"/>
<path d="M669.302 819.62C664.561 820.509 660.233 822.903 656.962 826.447L645.649 838.703C644.554 839.889 643.315 840.932 641.96 841.809C637.813 844.492 634.856 848.667 633.7 853.469L630.072 868.537C629.359 871.5 628.85 874.512 628.759 877.559C628.559 884.305 628.949 893.256 631.5 895.489C638.718 901.804 642.656 884.839 641.4 875.331C640.889 871.46 641.463 867.624 644 864.489C644.391 864.006 644.827 863.515 645.302 863.016C654.58 853.288 667.397 865.802 661.218 877.74C659.48 881.096 658.968 885.181 661.247 888.195C662.809 890.26 664.924 891.989 667.5 891.989C668.618 891.989 670.174 890.994 671.976 889.353C675.283 886.341 682.374 889.958 680.939 894.195C680.655 895.031 680.09 895.738 679.346 896.212C674.795 899.111 667.5 904.287 667.5 906.489C667.5 907.265 668.825 908.62 670.832 910.222C680.512 917.949 692.814 921.273 705 923.489C710.5 924.489 742 926.489 742 923.489C742 921.089 726.334 897.155 718.5 885.489L705.642 868.553C700.684 862.024 698 854.05 698 845.852V843.927C698 841.646 697.676 839.377 697.038 837.188C695.402 831.581 691.783 826.759 686.855 823.624L685.467 822.74C680.67 819.687 674.891 818.572 669.302 819.62Z" fill="#855A1B"/>
</mask>
<g mask="url(#mask4_1_164)">
<path d="M661.023 790.377C659.372 787.832 657.065 785.779 654.345 784.436L627.129 770.987C619.965 767.448 611.744 766.688 604.053 768.854C590.123 772.778 580.5 785.485 580.5 799.958V810.489C579.334 829.822 578.2 870.089 583 876.489C586.723 881.452 599.906 910.389 610.147 933.548C615.091 944.729 625.255 952.75 637.3 954.845L645.526 956.276C649.982 957.051 654.563 955.979 658.213 953.307L663.901 949.142C671.436 943.625 670.398 932.074 662 927.989L631.387 909.899C615.636 900.592 603.675 886.025 597.611 868.764C595.216 861.947 593.783 854.829 593.355 847.617L591.814 821.68C591.293 812.912 594.266 804.293 600.083 797.711L606.676 790.251C608.79 787.859 611.829 786.489 615.021 786.489C622.177 786.489 627.476 793.14 625.878 800.115L624.504 806.109C623.856 808.935 624.24 811.9 625.586 814.469C627.685 818.477 631.836 820.989 636.36 820.989H639.273C642.366 820.989 645.4 820.144 648.048 818.545L655.591 813.991C663.746 809.067 666.207 798.37 661.023 790.377Z" fill="#855A1B"/>
<path d="M669.302 819.62C664.561 820.509 660.233 822.903 656.962 826.447L645.649 838.703C644.554 839.889 643.315 840.932 641.96 841.809C637.813 844.492 634.856 848.667 633.7 853.469L630.072 868.537C629.359 871.5 628.85 874.512 628.759 877.559C628.559 884.305 628.949 893.256 631.5 895.489C638.718 901.804 642.656 884.839 641.4 875.331C640.889 871.46 641.463 867.624 644 864.489C644.391 864.006 644.827 863.515 645.302 863.016C654.58 853.288 667.397 865.802 661.218 877.74C659.48 881.096 658.968 885.181 661.247 888.195C662.809 890.26 664.924 891.989 667.5 891.989C668.618 891.989 670.174 890.994 671.976 889.353C675.283 886.341 682.374 889.958 680.939 894.195C680.655 895.031 680.09 895.738 679.346 896.212C674.795 899.111 667.5 904.287 667.5 906.489C667.5 907.265 668.825 908.62 670.832 910.222C680.512 917.949 692.814 921.273 705 923.489C710.5 924.489 742 926.489 742 923.489C742 921.089 726.334 897.155 718.5 885.489L705.642 868.553C700.684 862.024 698 854.05 698 845.852V843.927C698 841.646 697.676 839.377 697.038 837.188C695.402 831.581 691.783 826.759 686.855 823.624L685.467 822.74C680.67 819.687 674.891 818.572 669.302 819.62Z" fill="#855A1B"/>
</g>
</g>
</svg>
