<svg xmlns="http://www.w3.org/2000/svg" width="1760" height="2675" fill="none" viewBox="0 0 1760 2675"><path fill="#000" d="M612.018 813.617C609.928 810.393 607.006 807.793 603.561 806.091L569.089 789.058C560.016 784.575 549.603 783.612 539.862 786.356C522.218 791.326 510.031 807.421 510.031 825.751V839.089C508.553 863.576 507.118 914.577 513.197 922.683C517.912 928.969 534.61 965.62 547.58 994.953C553.842 1009.11 566.716 1019.27 581.971 1021.93L592.391 1023.74C598.035 1024.72 603.836 1023.36 608.459 1019.98L615.664 1014.7C625.208 1007.72 623.893 993.086 613.257 987.911L574.483 965C554.533 953.211 539.384 934.761 531.702 912.899C528.669 904.265 526.854 895.25 526.312 886.115L524.36 853.264C523.7 842.158 527.466 831.242 534.834 822.905L543.184 813.457C545.861 810.427 549.711 808.692 553.754 808.692C562.818 808.692 569.529 817.116 567.505 825.95L565.765 833.542C564.945 837.122 565.43 840.877 567.135 844.131C569.794 849.207 575.051 852.388 580.781 852.388H584.471C588.388 852.388 592.231 851.318 595.585 849.293L605.139 843.525C615.468 837.288 618.585 823.74 612.018 813.617Z"/><path fill="#000" d="M622.505 850.654C616.5 851.78 611.019 854.813 606.875 859.302L592.546 874.825C591.16 876.327 589.59 877.648 587.874 878.759C582.622 882.157 578.876 887.445 577.412 893.527L572.817 912.611C571.914 916.365 571.269 920.179 571.154 924.038C570.901 932.583 571.395 943.92 574.626 946.748C583.768 954.747 588.756 933.26 587.165 921.217C586.517 916.313 587.244 911.455 590.458 907.484C590.953 906.873 591.505 906.25 592.107 905.619C603.858 893.298 620.092 909.147 612.265 924.268C610.065 928.518 609.416 933.693 612.303 937.51C614.281 940.126 616.96 942.315 620.223 942.315C621.639 942.315 623.609 941.055 625.892 938.977C630.081 935.161 639.061 939.743 637.243 945.11C636.885 946.168 636.169 947.064 635.226 947.664C629.462 951.336 620.223 957.891 620.223 960.68C620.223 961.663 621.901 963.379 624.442 965.408C636.703 975.196 652.285 979.406 667.72 982.212C674.686 983.478 714.583 986.012 714.583 982.212C714.583 979.172 694.74 948.859 684.818 934.082L668.532 912.632C662.253 904.362 658.854 894.263 658.854 883.879V881.441C658.854 878.553 658.443 875.679 657.634 872.906C655.563 865.804 650.979 859.697 644.737 855.725L642.979 854.607C636.903 850.74 629.584 849.327 622.505 850.654Z"/><path fill="#000" d="M1059.3 605.643C1062.88 610.685 1069.48 612.564 1075.18 610.163L1130.04 587.04C1138 583.682 1146.42 581.525 1155.02 580.64L1192.4 576.792C1215.86 574.377 1239.55 578.004 1261.22 587.328C1272.5 592.182 1283.08 598.516 1292.68 606.164L1297.3 609.84L1308 618.166C1317.17 625.296 1329.13 627.772 1340.37 624.87L1347.3 623.081C1356.25 620.773 1363.23 613.781 1365.52 604.832C1367.2 598.308 1366.2 591.386 1362.76 585.594L1354.42 571.545C1347.68 560.194 1337.63 551.176 1325.62 545.7L1312.78 539.843C1304.96 536.279 1296.75 533.646 1288.32 531.996L1269.04 528.225C1251.55 524.803 1233.77 523.08 1215.95 523.08H1187.55C1181.3 523.08 1175.06 523.66 1168.91 524.812C1154.96 527.427 1141.72 532.951 1130.04 541.023L1096.46 564.243L1062.67 587.085C1056.54 591.23 1055.02 599.608 1059.3 605.643Z"/><path fill="#000" d="M1135.76 698.252C1139.63 700.743 1144.56 700.896 1148.59 698.648L1184.23 678.733C1184.82 678.401 1185.44 678.116 1186.07 677.879L1187.61 677.309C1196.41 674.04 1205.47 681.457 1204.01 690.73C1203.66 692.914 1203.91 695.151 1204.74 697.203L1212.35 716.232L1216.19 723.911C1218.49 728.52 1223.2 731.431 1228.35 731.431C1231.52 731.431 1234.58 730.329 1237.02 728.315L1241.55 724.568C1245.19 721.564 1250.44 721.551 1254.09 724.538L1254.41 724.793C1254.65 724.996 1254.92 725.176 1255.2 725.331C1259.33 727.626 1258.7 733.753 1254.18 735.153L1248.07 737.051C1247.9 737.104 1247.72 737.142 1247.55 737.165C1244.22 737.598 1243.84 742.254 1247.04 743.229L1247.36 743.325C1247.66 743.417 1247.97 743.463 1248.29 743.463H1263.89C1267.7 743.463 1271.26 741.584 1273.41 738.442C1276.27 734.272 1276.07 728.731 1272.94 724.77L1270.8 722.068C1267.86 718.363 1266.69 713.563 1267.59 708.924L1268.7 703.191C1269.54 698.855 1269.38 694.384 1268.22 690.121L1261.29 664.567C1260.34 661.063 1258.57 657.833 1256.14 655.14L1240.14 637.454C1237.95 635.034 1234.05 635.37 1232.31 638.129C1230.39 641.178 1225.95 641.195 1224 638.162L1223.82 637.887C1222.97 636.571 1221.57 635.712 1220.02 635.553L1203.12 633.829C1195.5 633.051 1187.81 634.458 1180.95 637.885L1157.25 649.737L1135.15 663.882C1132.35 665.671 1133.62 670.002 1136.94 670.002C1137.39 670.002 1137.83 669.911 1138.24 669.736L1184.18 650.134C1184.8 649.872 1185.46 649.737 1186.13 649.737H1187.86C1193.35 649.737 1194.42 657.533 1189.12 659.003C1188.57 659.157 1188.04 659.412 1187.58 659.755L1178.37 666.566C1175.27 668.852 1171.99 670.867 1168.55 672.587L1160.01 676.857C1158.18 677.77 1156.23 678.399 1154.21 678.722L1138.52 681.232C1132.27 682.232 1128.94 689.175 1132.09 694.674C1132.81 695.939 1133.83 697.012 1135.05 697.8L1135.76 698.252Z"/><path fill="#000" d="M1412.22 765.084C1413.75 762.588 1417.02 761.814 1419.51 763.357L1425.48 767.051C1427.23 768.135 1428.3 770.048 1428.3 772.107V773.258C1428.3 778.498 1421.7 780.812 1418.43 776.721C1418.25 776.503 1418.06 776.299 1417.86 776.11L1413.14 771.75C1411.28 770.033 1410.89 767.24 1412.22 765.084Z"/><path fill="#000" d="M1396.93 734.788C1393.85 736.958 1395.78 741.807 1399.51 741.254C1400.85 741.056 1402.19 741.631 1402.97 742.742L1403.73 743.826C1405.16 745.871 1407.75 746.751 1410.13 745.999L1413.55 744.922C1416.48 743.995 1419.67 744.39 1422.29 746.002L1430.54 751.076C1433.25 752.746 1435.73 754.792 1437.69 757.307C1440.48 760.906 1443.5 765.358 1443.5 767.528C1443.5 770.881 1447.41 773.807 1449.89 771.541L1453.32 768.397C1453.93 767.831 1454.36 767.095 1454.54 766.277C1456.28 758.302 1459.18 743.812 1458.7 740.93C1458.34 738.765 1453.24 731.758 1448.58 725.77C1445.28 721.523 1441.03 718.128 1436.25 715.664L1425.08 709.912C1423.49 709.089 1421.64 708.895 1419.9 709.367L1406.15 713.119C1402.96 713.99 1402.95 718.513 1406.13 719.398C1411.86 720.871 1411.79 729.029 1406.03 730.399L1402.59 731.22C1402 731.359 1401.45 731.609 1400.96 731.955L1396.93 734.788Z"/><path fill="#000" d="M1440.38 645.301C1430.99 656.72 1436.78 674.027 1451.16 677.487C1453.21 677.982 1455.18 678.801 1456.98 679.913L1466.83 685.99C1475.22 691.168 1486.21 686.489 1488.3 676.852C1488.82 674.438 1488.71 671.929 1487.97 669.572L1477.2 635.121C1476.69 633.478 1475.9 631.937 1474.86 630.566C1468.75 622.518 1456.57 622.761 1450.79 631.045L1443.5 641.504L1440.38 645.301Z"/><path fill="#000" d="M1345.4 884.913C1354.73 887.441 1358.2 898.872 1351.84 906.162L1349.05 909.365C1343.71 915.481 1343.9 924.651 1349.47 930.547L1357.7 939.245C1360.4 942.093 1362.35 945.556 1363.4 949.333L1364.76 954.223C1366.77 961.454 1363.84 969.151 1357.53 973.22C1352.01 976.782 1344.93 976.896 1339.4 973.348C1329.95 967.289 1319.37 960.016 1319.37 958.147C1319.37 957.474 1318.63 955.537 1317.44 952.868C1309.92 936.025 1314.95 918.235 1324.44 902.418C1325.32 900.948 1327.81 896.283 1330.32 891.511C1333.19 886.057 1339.45 883.302 1345.4 884.913Z"/><path fill="#000" d="M1395.03 961.461C1389.35 961.726 1384.6 957.191 1384.6 951.503C1384.6 946.865 1387.8 942.84 1392.32 941.792L1428.3 933.449C1437.96 931.437 1448.01 933.694 1455.88 939.642L1469.31 949.784C1471 951.063 1472 953.061 1472 955.182C1472 958.918 1468.97 961.947 1465.23 961.947H1459.54C1458.14 961.947 1456.76 961.713 1455.44 961.255L1430.02 952.414C1428.88 952.017 1427.68 951.814 1426.47 951.814C1423.97 951.814 1421.54 952.685 1419.61 954.277L1416.91 956.503C1413.61 959.215 1409.53 960.787 1405.27 960.985L1395.03 961.461Z"/><path fill="#000" d="M1063.16 258.587C1107.13 252.194 1151.99 256.107 1194.19 270.016L1285.05 299.963C1294.1 302.945 1301.72 309.182 1306.42 317.463L1315.01 332.563C1316.53 335.24 1319.38 336.894 1322.45 336.894C1327.56 336.894 1331.54 332.448 1330.96 327.37L1327.61 297.63V260.266L1322.64 212.193C1319.25 179.347 1307.53 147.913 1288.58 120.87C1264.97 87.1755 1231.25 61.8675 1192.3 48.6087L1117.7 23.2113C1049.71 0.0663299 977.049 -5.88772 906.2 5.88045L827.308 18.9844L698.563 44.6036C618.349 60.5656 544.114 98.4073 484.072 153.942L411.262 221.286C364.102 264.906 326.961 318.238 302.576 377.67C268.591 460.5 232.017 550.313 232.017 552.844C232.017 556.017 241.82 666.58 248.268 738.809C249.671 754.521 248.863 770.321 245.869 785.809C237.031 831.523 247.492 878.858 274.773 916.59L340.439 1007.41C352.705 1024.38 359.308 1044.78 359.308 1065.71V1105.53C359.308 1124.89 343.235 1136.98 329.544 1150.67C325.111 1155.1 329.544 1193.73 329.544 1201.96C329.544 1208.55 386.54 1219.06 415.038 1223.49C435.158 1226.26 452.546 1239.06 460.681 1257.67C469.279 1277.33 477.719 1297.78 478.366 1303.29C479.101 1309.53 510.079 1316.16 538.159 1320.69C555.103 1323.43 571.409 1313.65 577.675 1297.67C579.013 1294.26 579.845 1290.67 580.144 1287.01L587.534 1196.86C590.736 1157.79 588.742 1118.47 581.604 1079.93L579.693 1069.61L522.968 1005.26C504.411 984.211 490.4 959.556 481.812 932.84L479.473 925.563C474.544 910.227 472.034 894.216 472.034 878.107V864.849C472.034 847.939 476.222 831.293 484.224 816.396L493.418 799.282C505.598 776.608 529.255 762.462 554.994 762.462H566.327C589.471 762.462 612.495 765.795 634.689 772.36L659.645 779.741C680.345 785.864 699.267 796.878 714.812 811.855C733.273 829.64 746.266 852.331 752.262 877.254L775.379 973.346L793.111 1080.37L786.648 1101.8C775.156 1139.91 774.859 1180.51 785.793 1218.78C790.652 1235.79 797.663 1252.1 806.657 1267.33L815.551 1282.38C842.853 1328.61 880.597 1367.8 925.762 1396.82L997.03 1442.61L1084.43 1515.35C1093.84 1523.18 1105.69 1527.47 1117.94 1527.47H1137.09C1143.33 1527.47 1149.11 1530.7 1152.4 1535.99C1154.32 1539.1 1157.15 1541.55 1160.5 1543.02L1248.55 1581.43C1272.37 1591.82 1297.78 1598.12 1323.7 1600.04L1333.61 1600.78C1362.98 1602.96 1392.44 1598.25 1419.66 1587.01C1456.56 1571.77 1487.67 1545.24 1508.54 1511.22L1511.7 1506.07C1518.98 1494.2 1524.91 1481.55 1529.36 1468.36C1535.83 1449.21 1539.12 1429.14 1539.12 1408.93V1377.38L1537.02 1359.76C1535.07 1343.45 1529.28 1327.84 1520.12 1314.21L1516.52 1308.86C1510.14 1299.36 1506 1288.53 1504.41 1277.2L1502.76 1265.52C1501.7 1257.95 1502.96 1250.23 1506.38 1243.39C1507.94 1240.27 1509.92 1237.39 1512.27 1234.81L1515.67 1231.09L1510.57 1222.33C1508.11 1218.1 1504.68 1214.52 1500.56 1211.88L1498.17 1210.35C1494.78 1208.18 1490.83 1207.03 1486.81 1207.03C1483.69 1207.03 1480.6 1207.72 1477.78 1209.06L1464.17 1215.5C1460.95 1217.03 1457.92 1218.91 1455.13 1221.11C1449.96 1225.19 1445.71 1230.3 1442.64 1236.12L1438.61 1243.75C1436.41 1247.91 1435.27 1252.55 1435.27 1257.26V1260.62C1435.27 1267.92 1438.81 1274.76 1444.77 1278.98L1463.39 1292.14C1467.5 1295.05 1467.37 1301.2 1463.13 1303.92L1459.21 1306.17C1446.19 1313.66 1429.98 1312.78 1417.85 1303.92C1414.51 1317.28 1401.08 1325.5 1387.67 1322.39L1343.44 1312.15L1298.9 1296.51C1282.65 1290.79 1269.93 1277.91 1264.43 1261.58L1261.21 1252C1255.47 1234.97 1239.51 1223.49 1221.53 1223.49C1208.91 1223.49 1196.96 1229.19 1189.02 1238.99L1161.37 1273.07C1157.56 1277.76 1151.84 1280.49 1145.8 1280.49C1132.12 1280.49 1122.46 1267.08 1126.78 1254.1L1130.02 1244.39L1162.96 1127.35C1164.63 1121.39 1165.48 1115.23 1165.48 1109.04C1165.48 1076.88 1142.83 1049.18 1111.32 1042.79L1061.5 1032.69C1037.58 1027.85 1015.52 1016.35 997.835 999.533L932.419 937.299C915.988 921.667 900.781 904.798 886.931 886.839L872.677 868.357C857.693 848.927 845.289 827.638 835.773 805.022L830.575 792.671C811.541 747.433 806.754 697.467 816.852 649.439C823.747 616.644 837.398 585.645 856.935 558.417L907.736 487.616L909.635 485.143C924.255 466.103 922.973 439.286 906.604 421.726C902.332 417.143 897.222 413.419 891.551 410.756L849.764 391.135C834.821 384.118 820.524 375.818 806.95 366.424C785.785 351.777 761.112 334.957 757.013 333.094C754.424 331.917 758.114 325.044 764.057 316.603C778.225 296.479 798.971 282.196 821.341 271.936C854.08 256.92 890.643 252.332 926.077 258.792L947.053 262.617C973.02 267.351 999.585 267.829 1025.71 264.032L1063.16 258.587Z"/><path fill="#000" d="M1493.3 1159.12C1495.73 1151.33 1493.19 1142.85 1486.88 1137.68L1490.99 1151.93L1492.97 1160.17L1493.3 1159.12Z"/><path fill="#000" d="M1352.94 1087.97L1397.9 1066.44L1419.09 1061.37C1434.64 1057.64 1450.92 1058.26 1466.14 1063.14C1472.97 1065.33 1480.05 1066.67 1487.21 1067.13L1496.06 1067.71L1501.13 1105.7L1506.83 1107.6L1504.82 1082.58C1503.77 1069.4 1493.81 1058.67 1480.75 1056.64L1480.23 1056.56C1476.47 1055.98 1472.89 1054.58 1469.73 1052.47C1465.43 1049.6 1460.37 1048.07 1455.2 1048.07H1440.31C1431.94 1048.07 1423.62 1049.47 1415.71 1052.2L1408.64 1054.65C1398.15 1058.27 1388.22 1063.33 1379.13 1069.68L1352.94 1087.97Z"/><path fill="#000" d="M1469.39 1078.33C1477.43 1081.22 1483.71 1087.64 1486.41 1095.74C1489.28 1104.37 1487.77 1113.85 1482.35 1121.15L1482.07 1121.53L1476.43 1129.13L1486.88 1137.68C1489.62 1129.05 1493.14 1120.68 1497.4 1112.68L1501.13 1105.7L1496.06 1067.71L1454.22 1073.63C1456.36 1073.9 1458.45 1074.4 1460.47 1075.13L1469.39 1078.33Z"/><path fill="#000" d="M1466.14 1063.14C1450.92 1058.26 1434.64 1057.64 1419.09 1061.37L1397.9 1066.44L1454.22 1073.63L1496.06 1067.71L1487.21 1067.13C1480.05 1066.67 1472.97 1065.33 1466.14 1063.14Z"/><path fill="#000" d="M1397.9 1066.44L1352.94 1087.97L1454.22 1073.63L1397.9 1066.44Z"/><path fill="#000" d="M1349.51 1132.3C1354.71 1132.3 1359.47 1129.36 1361.8 1124.7L1350.4 1121.53L1339.01 1118.37L1333.36 1132.3H1349.51Z"/><path fill="#000" d="M1411.83 1194.36H1476.43C1489.99 1194.36 1498.51 1179.73 1491.81 1167.93L1490.99 1166.5L1457.43 1155.1L1404.87 1141.8L1380.16 1138.53C1375.93 1137.97 1373.94 1143.57 1377.57 1145.8C1378.03 1146.09 1378.43 1146.46 1378.74 1146.91L1411.83 1194.36Z"/><path fill="#000" d="M1339.01 1118.37L1352.94 1087.97L1379.13 1069.68C1388.22 1063.33 1398.15 1058.27 1408.64 1054.65L1415.71 1052.2C1423.62 1049.47 1431.94 1048.07 1440.31 1048.07H1455.2C1460.37 1048.07 1465.43 1049.6 1469.73 1052.47C1472.89 1054.58 1476.47 1055.98 1480.23 1056.56L1480.75 1056.64C1493.81 1058.67 1503.77 1069.4 1504.82 1082.58L1506.83 1107.6L1503.68 1128.9C1501.99 1140.41 1501.81 1152.08 1503.15 1163.63C1503.91 1170.18 1505.16 1176.66 1506.88 1183.02L1507.7 1186.05C1510.91 1197.89 1515.35 1209.36 1520.96 1220.28L1522.62 1223.49L1522.02 1218.89C1519.93 1202.67 1520.79 1186.21 1524.56 1170.3L1525.92 1160.73C1529.64 1134.7 1530.13 1108.31 1527.36 1082.16L1525.28 1062.46C1524.8 1057.94 1523.94 1053.47 1522.72 1049.09C1518.94 1035.56 1511.74 1023.22 1501.8 1013.28L1491.16 1002.65C1488.95 1000.44 1486.41 998.581 1483.63 997.149L1475.48 992.95C1470.24 990.253 1463.93 990.761 1459.19 994.263C1454.94 997.407 1449.37 998.161 1444.44 996.262L1440.06 994.579C1437.31 993.52 1434.39 992.978 1431.44 992.978H1421.97C1400.42 990.132 1378.61 995.687 1361.05 1008.49L1358 1010.71L1329.51 1031.61L1298.91 1059.04C1294.83 1062.7 1291.14 1066.76 1287.9 1071.18C1280.69 1080.98 1275.82 1092.29 1273.66 1104.27L1269.98 1124.7L1268.32 1135.48C1266.98 1144.18 1261.4 1151.65 1253.44 1155.41C1247.01 1158.45 1239.62 1158.77 1232.94 1156.31L1215.71 1149.94C1214.75 1149.58 1213.89 1149 1213.22 1148.23L1209.48 1143.95C1206.19 1140.19 1200.08 1143.39 1201.29 1148.23C1201.48 1149 1201.86 1149.7 1202.39 1150.29L1223.33 1173.2C1231.05 1181.64 1241.02 1187.69 1252.07 1190.62C1261.34 1193.08 1271.06 1193.27 1280.42 1191.17L1297.45 1187.35C1301.07 1186.54 1304.55 1185.21 1307.79 1183.39C1317.54 1177.9 1324.39 1168.39 1326.51 1157.39L1328.4 1147.54C1329.14 1143.72 1330.24 1139.99 1331.7 1136.38L1333.36 1132.3L1339.01 1118.37Z"/><path fill="#000" fill-rule="evenodd" d="M576.302 1215.89C586.795 1215.89 595.301 1224.4 595.301 1234.89V1325.99L582.75 1416.23C617.91 1416.94 653.374 1420.67 684.172 1430.94C711.757 1440.13 734.121 1460.92 751.246 1476.85C752.049 1477.59 752.841 1478.33 753.621 1479.05C810.059 1531.4 855.72 1592 900.548 1651.49C905.076 1657.5 909.595 1663.5 914.116 1669.48C952.479 1720.2 981.979 1747.27 1013.87 1772.41C1019.31 1776.7 1024.9 1780.99 1030.66 1785.37C1032.18 1765.25 1037.12 1746.66 1041.86 1729.68C1042.31 1728.09 1042.75 1726.51 1043.19 1724.95C1048.54 1705.86 1053.32 1688.83 1054.71 1670.75C1056.63 1645.74 1057.29 1620.63 1057.97 1594.97L1058.03 1592.86C1058.72 1566.64 1059.47 1539.86 1061.7 1513.06C1062.57 1502.61 1071.76 1494.84 1082.21 1495.71C1092.67 1496.58 1100.44 1505.76 1099.57 1516.22C1097.44 1541.78 1096.71 1567.53 1096.01 1593.87L1095.95 1596.34C1095.79 1602.34 1095.63 1608.36 1095.45 1614.42C1096.09 1614.9 1096.71 1615.42 1097.3 1615.99C1106.03 1624.42 1116.58 1632.3 1128.46 1640.63C1131.56 1642.8 1134.79 1645.03 1138.09 1647.31C1147 1653.47 1156.43 1659.98 1165.22 1666.7C1196.73 1690.8 1217.96 1719.86 1235.99 1744.53L1236.16 1744.78C1272.35 1794.3 1285.68 1845.21 1298.27 1893.56C1311.27 1943.52 1313.91 1992.54 1314.22 2040.96C1365.64 2102.94 1403.61 2162.18 1437.8 2215.54C1445.7 2227.86 1453.4 2239.87 1461.01 2251.52C1496.51 2305.88 1529.61 2351.6 1572.54 2387.34C1615.06 2422.73 1668.1 2449.01 1744.32 2462.56C1754.65 2464.4 1761.54 2474.26 1759.7 2484.59C1757.87 2494.93 1748 2501.81 1737.67 2499.97C1655.53 2485.37 1596.26 2456.52 1548.23 2416.55C1500.63 2376.92 1464.95 2327.04 1429.2 2272.3C1421.47 2260.47 1413.71 2248.37 1405.79 2236.02C1372.56 2184.21 1336.58 2128.1 1288.77 2069.81C1282.43 2067.51 1277.67 2061.94 1276.52 2055.14C1232.29 2003.11 1178.15 1949.5 1107.77 1895.79L1107.2 1895.35L1106.66 1894.87C1072.8 1864.72 1046.03 1844.56 1021.27 1825.91C1010.73 1817.97 1000.55 1810.3 990.346 1802.25C956.202 1775.33 924.344 1745.99 883.812 1692.4C879.323 1686.47 874.86 1680.54 870.412 1674.64C825.242 1614.72 781.604 1556.83 727.781 1506.91C708.698 1489.21 691.707 1473.5 672.156 1466.98C640.997 1456.6 602.006 1453.67 561.155 1454.14C536.934 1454.42 512.611 1455.87 489.513 1457.46C484.464 1457.81 479.417 1458.16 474.441 1458.52C467.7 1458.99 461.09 1459.46 454.785 1459.88C421.763 1462.08 390.136 1467.27 358.328 1473.84C337.586 1478.13 317.074 1482.93 296.01 1487.86C287.274 1489.9 278.444 1491.97 269.463 1494.03C264.958 1495.06 261.303 1495.8 258.238 1496.41C248.513 1498.36 244.732 1499.12 238.58 1504.5C198.973 1539.08 194.075 1582.57 194.075 1640.41V1643.03L193.365 1645.56C175.123 1710.39 157.611 1758.96 132.642 1798.48C107.335 1838.54 75.0571 1868.27 29.0154 1896.83C20.0987 1902.36 8.38683 1899.61 2.85614 1890.7C-2.67454 1881.78 0.0703602 1870.07 8.98706 1864.54C51.3303 1838.28 78.9519 1812.33 100.518 1778.19C122.135 1743.97 138.326 1700.51 156.081 1637.77C156.215 1580.08 161.08 1521.73 213.587 1475.88C228.028 1463.27 242.921 1460.47 254.392 1458.31C256.736 1457.87 258.938 1457.46 260.963 1456.99C269.587 1455.02 278.214 1453 286.841 1450.98C304.996 1446.73 323.155 1442.48 341.303 1438.6C359.574 1401.24 383.093 1374.35 418.665 1353.97C452.988 1334.3 497.684 1321.21 557.304 1309.07V1234.89C557.304 1224.4 565.81 1215.89 576.302 1215.89ZM490.823 1364.65C469.601 1371.3 452.198 1378.54 437.558 1386.93C418.121 1398.07 403.176 1411.47 390.69 1429.17C410.709 1425.92 431.145 1423.38 452.258 1421.97C458.549 1421.55 464.968 1421.09 471.601 1420.62C471.671 1420.62 471.741 1420.61 471.811 1420.61C475.74 1398.89 481.453 1380.43 490.823 1364.65ZM511.088 1418C521.961 1417.37 533.102 1416.83 544.35 1416.49L552.705 1356.42C541.824 1362.76 534.121 1369.41 528.263 1377.01C520.705 1386.81 515.218 1399.47 511.088 1418ZM1274.99 1996.19C1273.3 1964.77 1269.53 1933.99 1261.49 1903.14C1248.82 1854.44 1236.89 1810.18 1205.48 1767.19C1187.18 1742.15 1168.82 1717.29 1142.14 1696.88C1134.13 1690.76 1125.87 1685.06 1117.24 1679.09C1113.77 1676.7 1110.24 1674.26 1106.65 1671.74C1102.25 1668.66 1097.8 1665.48 1093.39 1662.17C1093.15 1666 1092.89 1669.83 1092.59 1673.66C1090.9 1695.67 1085.11 1716.25 1079.91 1734.72C1079.42 1736.46 1078.94 1738.19 1078.46 1739.89C1072.76 1760.31 1068.19 1778.5 1068.19 1797.63C1068.19 1802.44 1066.4 1806.83 1063.45 1810.18C1083.42 1825.47 1105.72 1843.19 1131.39 1866.02C1188.53 1909.67 1235.39 1953.39 1274.99 1996.19ZM376.315 1732.46C377.578 1722.04 387.045 1714.62 397.462 1715.88C461.73 1723.67 518.287 1752.89 570.8 1782.47C694.931 1852.41 807.835 1938.22 913.071 2032.96C946.712 2063.24 979.216 2094.04 1011.51 2124.64C1078.64 2188.25 1144.87 2251.01 1218.54 2306.5C1248.19 2328.84 1266.45 2339.67 1297.57 2344.86C1307.92 2346.59 1314.91 2356.37 1313.19 2366.72C1311.46 2377.07 1301.67 2384.07 1291.32 2382.34C1251.36 2375.68 1227.27 2360.66 1195.67 2336.85C1120.3 2280.07 1051.37 2214.78 983.356 2150.35C951.442 2120.12 919.729 2090.07 887.649 2061.2C783.95 1967.85 673.296 1883.83 552.148 1815.58C499.772 1786.07 448.989 1760.4 392.89 1753.6C382.473 1752.34 375.052 1742.87 376.315 1732.46ZM358.024 1842.15C366.287 1848.62 367.743 1860.56 361.276 1868.82C348.561 1885.07 328.406 1908.71 305.526 1935.55C285.946 1958.51 264.372 1983.82 243.759 2008.83C221.054 2036.38 199.147 2064 181.248 2088.93C163.108 2114.2 149.979 2135.51 143.898 2150.71C140.001 2160.46 128.945 2165.19 119.202 2161.3C109.46 2157.4 104.722 2146.34 108.618 2136.6C116.525 2116.84 132.004 2092.37 150.38 2066.77C168.998 2040.84 191.516 2012.48 214.435 1984.67C236.221 1958.23 258.066 1932.63 277.557 1909.78C299.711 1883.82 318.824 1861.41 331.353 1845.41C337.82 1837.14 349.761 1835.69 358.024 1842.15ZM417.778 1903.24H427.89C454.134 1903.24 481.082 1914.31 504.431 1926.12C516.368 1932.16 528.079 1938.79 538.893 1944.91L539.328 1945.16C550.146 1951.29 559.93 1956.83 568.871 1961.3C578.256 1965.99 582.06 1977.4 577.367 1986.79C572.675 1996.17 561.263 1999.98 551.878 1995.29C542.043 1990.37 531.515 1984.4 521.079 1978.49L520.164 1977.97C509.253 1971.79 498.295 1965.6 487.276 1960.03C468.887 1950.72 452.127 1944.11 437.507 1941.98L387.1 2016.85C381.24 2025.55 369.434 2027.85 360.73 2021.99C352.027 2016.13 349.721 2004.33 355.581 1995.62L417.778 1903.24ZM574.008 2134.02C559.937 2128.95 545.383 2129.07 526.186 2141.87C499.499 2159.66 429.752 2204.08 357.868 2244.11C321.944 2264.12 285.158 2283.22 252.775 2297.38C236.588 2304.45 221.224 2310.41 207.437 2314.63C193.913 2318.77 180.742 2321.61 169.322 2321.61C158.829 2321.61 150.323 2313.1 150.323 2302.61C150.323 2292.12 158.829 2283.61 169.322 2283.61C175.172 2283.61 184.13 2282.03 196.313 2278.3C208.234 2274.65 222.158 2269.29 237.558 2262.56C268.352 2249.1 303.946 2230.65 339.379 2210.92C410.21 2171.47 479.085 2127.6 505.109 2110.26C534.037 2090.97 561.154 2089 586.886 2098.27C610.491 2106.78 632.053 2124.58 651.747 2140.86C665.041 2151.86 679.447 2161.66 694.722 2172.06C697.949 2174.26 701.216 2176.48 704.519 2178.75C723.021 2191.44 742.345 2205.3 759.231 2222.18C805.249 2268.2 850.261 2319.54 891.907 2368.53C905.635 2384.68 918.642 2400.61 931.413 2416.24C968.028 2461.05 1002.69 2503.48 1046.77 2542.05C1053.32 2547.79 1060.08 2554.15 1066.75 2560.44L1067.21 2560.88C1073.81 2567.11 1080.39 2573.31 1087.09 2579.27C1100.98 2591.63 1114.28 2601.9 1127.07 2607.99C1136.77 2612.6 1146.62 2616.88 1156.83 2621.32C1158.09 2621.86 1159.36 2622.41 1160.63 2622.96C1172.08 2627.94 1183.92 2633.15 1195.62 2639C1205.01 2643.7 1208.81 2655.11 1204.12 2664.49C1199.43 2673.88 1188.02 2677.68 1178.63 2672.99C1167.93 2667.64 1156.92 2662.78 1145.48 2657.81C1144.23 2657.27 1142.97 2656.72 1141.7 2656.17C1131.56 2651.77 1121.07 2647.22 1110.74 2642.29C1092.93 2633.82 1076.38 2620.6 1061.84 2607.66C1054.71 2601.32 1047.78 2594.79 1041.29 2588.66L1040.67 2588.08C1033.91 2581.7 1027.67 2575.83 1021.75 2570.65C975.065 2529.8 937.574 2483.9 900.405 2438.39C887.996 2423.19 875.623 2408.05 862.956 2393.14C821.486 2344.36 777.27 2293.96 732.362 2249.05C718.144 2234.83 701.342 2222.65 683.019 2210.08C679.995 2208 676.916 2205.91 673.802 2203.79C658.494 2193.38 642.327 2182.38 627.532 2170.14C606.577 2152.82 590.205 2139.86 574.008 2134.02ZM573.302 2293.3C576.621 2303.26 571.241 2314.02 561.287 2317.33C532.833 2326.82 506.05 2339.9 477.863 2353.67C476.189 2354.48 474.511 2355.3 472.826 2356.13C443.185 2370.59 411.96 2385.53 377.809 2395.66C375.706 2396.28 373.651 2396.89 371.638 2397.48C347.295 2404.66 329.272 2409.97 311.04 2422.12C302.31 2427.95 290.514 2425.59 284.694 2416.86C278.873 2408.13 281.233 2396.33 289.963 2390.51C313.223 2375 336.677 2368.13 360.163 2361.24C362.443 2360.57 364.722 2359.9 367.002 2359.23C397.761 2350.1 426.389 2336.5 456.166 2321.98C458.018 2321.07 459.876 2320.17 461.739 2319.25C489.418 2305.73 518.331 2291.6 549.271 2281.29C559.225 2277.97 569.984 2283.35 573.302 2293.3Z" clip-rule="evenodd"/></svg>